<svg width="83" height="19" viewBox="0 0 83 19" fill="none" xmlns="http://www.w3.org/2000/svg">
<g clip-path="url(#clip0_557_113)">
<path d="M55.7981 11.7651V6.61975C55.7981 5.56996 56.3027 4.81818 57.3782 4.81818H64.0147C64.0577 4.81547 64.0918 4.78217 64.0944 4.74048V3.71659C64.094 3.70756 64.0919 3.69868 64.0883 3.69035H55.9741C54.2152 3.90756 53.3561 5.09824 53.3561 6.61975V11.7651C53.3561 12.8146 52.8374 13.5663 51.776 13.5663H44.7676C44.7462 13.5655 44.7254 13.5735 44.7103 13.5882C44.6952 13.603 44.6871 13.6232 44.6879 13.644V14.6683C44.687 14.7059 44.7103 14.74 44.7463 14.7539H52.7033C54.777 14.7011 55.7967 13.4151 55.7967 11.7651H55.7981ZM30.0272 14.7539H32.3572C32.3931 14.7402 32.4164 14.7061 32.4155 14.6686V11.388C32.4155 10.3382 33.026 9.61234 33.9152 9.61234H43.5128C45.6764 9.61234 46.7253 8.31633 46.7253 6.61837C46.7253 5.09686 45.867 3.90617 44.1073 3.68896H29.9838C29.9799 3.6976 29.9728 3.7045 29.9728 3.71521V4.7391C29.9699 4.7604 29.9773 4.78181 29.9929 4.79704C30.0085 4.81227 30.0305 4.81957 30.0524 4.8168H42.7029C43.7785 4.8168 44.2826 5.56857 44.2826 6.61837C44.2826 7.66816 43.7781 8.41993 42.7029 8.41993H32.6943C31.1412 8.41993 29.9728 9.70316 29.9728 11.3897V14.6703C29.9686 14.7075 29.9911 14.7427 30.0272 14.7556V14.7539Z" fill="white"/>
<path d="M65.1521 13.1136H77.9963C78.0293 13.1107 78.0587 13.1337 78.0626 13.1654V14.2162C78.0617 14.237 78.0698 14.2572 78.085 14.272C78.1001 14.2868 78.121 14.2949 78.1425 14.2944H80.458C80.4796 14.2952 80.5007 14.2873 80.5159 14.2724C80.5311 14.2575 80.5391 14.2371 80.5379 14.2162V13.1913C80.541 13.1498 80.5751 13.1167 80.6182 13.1136H82.9192C82.9409 13.1144 82.9619 13.1065 82.9773 13.0918C82.9926 13.077 83.0008 13.0567 82.9999 13.0358V11.9988C83.0008 11.9779 82.9926 11.9576 82.9773 11.9428C82.9619 11.9281 82.9409 11.9201 82.9192 11.921H80.6185C80.5756 11.9179 80.5415 11.885 80.5382 11.8436V4.35669C80.5382 3.74592 80.3031 3.35705 79.9071 3.22778H79.2374C78.9979 3.29091 78.7692 3.38707 78.5583 3.51329L64.7252 11.7513C64.1898 12.0755 64.0021 12.4388 64.1361 12.7112C64.2436 12.9449 64.5504 13.1136 65.1531 13.1136H65.1521ZM67.1589 11.7382L77.8741 5.34354C77.9419 5.29169 78.0755 5.30483 78.0755 5.44724V11.8419C78.0723 11.8833 78.0382 11.9162 77.9953 11.9193H67.2249C67.132 11.9193 67.0908 11.8937 67.0786 11.8675C67.0639 11.8156 67.0908 11.7766 67.1589 11.7375V11.7382ZM9.02839 0C10.0779 0.18895 11.1102 0.458631 12.1373 0.740142C12.7247 0.904734 13.3105 1.07489 13.8928 1.25654C14.8072 1.5377 15.7175 1.85575 16.5457 2.33039C16.9167 2.54787 17.2729 2.79354 17.5776 3.09315C17.9074 3.40595 18.1777 3.7724 18.3758 4.1757C18.7363 4.90366 18.8607 5.71688 18.8971 6.51652C18.9144 7.03848 18.9134 7.56427 18.812 8.07928C18.7284 8.52677 18.5791 8.96801 18.3311 9.35669C18.1142 9.70472 17.8062 9.99145 17.438 10.188C17.0806 10.371 16.6804 10.462 16.276 10.4525C15.666 10.4587 15.0747 10.2712 14.5274 10.0252C14.5173 8.26892 14.5256 6.51235 14.523 4.75647C14.5194 4.43877 14.5418 4.11759 14.4751 3.80441C14.4282 3.56083 14.3258 3.31724 14.1283 3.15196C13.9932 3.04214 13.8305 2.96858 13.6567 2.93865C13.4808 2.90938 13.3025 2.97633 13.1934 3.11263C13.0156 3.32664 12.9691 3.61093 12.9612 3.87818C12.9597 8.5799 12.9597 13.2816 12.9612 17.9833C11.6507 17.5825 10.3408 17.181 9.03128 16.779C9.02984 11.1882 9.02984 5.59601 9.03128 0.00243582L9.02839 0ZM3.13679 11.898C4.84539 11.3141 6.55219 10.7246 8.26116 10.1428C8.26405 10.79 8.26116 11.4376 8.26116 12.0859C8.26405 12.1737 8.26188 12.2617 8.25467 12.3493C6.90372 12.8114 5.5553 13.2815 4.20579 13.7467C4.01867 13.8163 3.8265 13.8922 3.68228 14.03C3.61522 14.0947 3.56042 14.1904 3.5972 14.283C3.64335 14.3922 3.75872 14.4517 3.86508 14.4966C4.16108 14.6129 4.48485 14.6292 4.80032 14.6431C5.1528 14.6425 5.50431 14.6075 5.8495 14.5387C6.08112 14.49 6.30819 14.423 6.5284 14.3383C7.10526 14.1368 7.68213 13.934 8.259 13.7346C8.26296 14.2823 8.259 14.8303 8.2608 15.3787C8.259 15.488 8.26585 15.5983 8.25467 15.7072C7.5459 15.8356 6.82751 15.9083 6.10657 15.9247C4.65231 15.9532 3.20364 15.7425 1.82261 15.3018C1.37049 15.1755 0.921258 15.0068 0.543411 14.7298C0.335378 14.5746 0.149339 14.3794 0.0545166 14.1382C-0.0262032 13.932 -0.0169687 13.703 0.0801151 13.5035C0.175298 13.3076 0.341508 13.1527 0.524663 13.0323C0.948299 12.7498 1.41592 12.5344 1.88931 12.3423C2.29781 12.1746 2.72108 12.0438 3.13787 11.8973L3.13679 11.898Z" fill="white"/>
<path d="M16.4608 11.1371C16.8371 11.0915 17.2162 11.0809 17.595 11.0667C18.8403 11.0718 20.0937 11.2331 21.285 11.6214C21.5187 11.6944 21.7454 11.7915 21.9781 11.8685C22.3933 12.0266 22.8089 12.2182 23.1414 12.5291C23.3408 12.7189 23.5132 12.9744 23.5156 13.266C23.5272 13.504 23.4242 13.7317 23.2763 13.9069C22.996 14.2354 22.6225 14.4617 22.2493 14.6588C21.8516 14.8698 21.4241 15.0063 21.0072 15.1669C18.461 16.1187 15.9159 17.071 13.3721 18.0236V15.7972C13.3759 15.7673 13.3605 15.7158 13.4005 15.7078C15.337 14.9902 17.2732 14.2712 19.2093 13.5507C19.471 13.4489 19.7531 13.3752 19.9752 13.1901C20.0664 13.1171 20.1553 12.9974 20.1105 12.8697C20.0642 12.7583 19.9528 12.6967 19.8509 12.6507C19.5611 12.531 19.2454 12.508 18.937 12.4988C18.4542 12.5025 17.9675 12.5642 17.5085 12.7255C16.129 13.2292 14.7523 13.7387 13.3738 14.2405V11.8492C14.3717 11.4842 15.4138 11.263 16.4636 11.1375L16.4608 11.1371ZM22.1186 16.6297C22.4342 16.5927 22.7443 16.7366 22.9291 17.0057C23.1138 17.2748 23.1442 17.627 23.0086 17.9261C22.8685 18.2371 22.5471 18.455 22.2143 18.444C21.903 18.4447 21.6152 18.2716 21.4602 17.9904C21.3136 17.7245 21.305 17.3997 21.4373 17.1258C21.5697 16.8519 21.8252 16.6655 22.1176 16.6297H22.1186ZM22.0531 16.7972C21.7642 16.8672 21.5451 17.1131 21.4996 17.4185C21.4541 17.7238 21.5913 18.0273 21.8463 18.1852C22.1013 18.3431 22.4228 18.3237 22.6586 18.1363C22.8944 17.9488 22.9972 17.6309 22.9182 17.333C22.8635 17.1326 22.7335 16.9636 22.5577 16.8644C22.4026 16.7798 22.2236 16.7559 22.0531 16.7972Z" fill="white"/>
<path d="M22.1335 17.061H22.6627C22.7626 17.061 22.8723 17.0819 22.9431 17.1467C23.0138 17.2114 23.0217 17.3127 23.0001 17.3977C22.9891 17.4538 22.9309 17.487 22.8884 17.5261C22.925 17.5537 22.9722 17.5796 22.9812 17.6257C23.0013 17.7117 22.9812 17.8017 23.0127 17.886C23.0362 17.9142 23.0509 17.947 23.0555 17.9813C22.9824 17.9829 22.9097 17.9813 22.8365 17.9829C22.7874 17.885 22.8243 17.7748 22.7933 17.6742C22.779 17.6332 22.7333 17.6058 22.6828 17.6078C22.5648 17.6035 22.4437 17.6078 22.3254 17.6078C22.3234 17.7329 22.3293 17.8584 22.3215 17.9833H22.1347C22.1316 17.6762 22.1347 17.3694 22.1347 17.063L22.1335 17.061ZM22.325 17.2068V17.4611H22.645C22.7006 17.4654 22.7554 17.4481 22.7941 17.4143C22.8293 17.3647 22.8303 17.303 22.7968 17.2526C22.7693 17.2141 22.7111 17.2101 22.6635 17.2074C22.5507 17.2044 22.4374 17.2074 22.325 17.2074V17.2068Z" fill="white"/>
</g>
<defs>
<clipPath id="clip0_557_113">
<rect width="83" height="18.4444" fill="white"/>
</clipPath>
</defs>
</svg>
