<svg viewBox="0 0 178 40" xmlns="http://www.w3.org/2000/svg" role="img">
  <title>PS5</title>
  <g fill="#FFF" fill-rule="nonzero">
    <path d="M65.2645167 8.27151917c-.3410721.33959017-.3641176 1.58475413 0 1.94652473.204336.204213 3.4790895.272284 13.3256273.272284 9.2780843 0 13.3486728.0673062 14.0077717.2715192 2.8653133.7923771 3.8409025 4.4827432 1.6830835 6.4300328-1.3650568 1.245164-1.0915845 1.2237484-13.030646 1.2237484H70.1993083l-1.2052752.5438032c-.7505124.3395901-1.59167.9942955-2.2277235 1.6979508-1.4779793 1.6979509-1.8190514 3.2123395-1.7284061 7.7203225l.068368 3.5098633h5.2297729l.1136908-4.3022403c.1136907-4.732082.1820587-4.9125849 1.6377608-6.0223717l.7505124-.5430383 11.4835304-.136142c6.3213575-.068071 11.7339574-.2034482 12.0519841-.3166449 1.5463474-.5208579 2.8199907-1.7208962 3.7517941-3.5098633.636821-1.2237484.568453-4.0980273-.113691-5.4112623-.6909069-1.2764197-1.7423369-2.32328119-3.0243269-3.01118583l-.9556165-.51626885-15.2360923-.06730616c-11.8929707-.04589056-15.3036922 0-15.5310736.22945282v-.00917811Zm55.2122063-.068071c-1.18223.24857388-2.227724.86044807-3.273986 1.92434433-1.63776 1.6757704-1.728406 2.2639345-1.728406 9.8259345v6.6113006l-.546176.8833933c-.318027.4749674-.909526 1.109022-1.318966 1.4034864-.749744.5438032-.818112.5438032-7.344574.6118742-3.615826.0229453-6.7307975.0458906-6.8675336.0458906-.204336 0-.2957495.4068963-.2957495 1.2451639V32h8.2771451c8.846367 0 8.823321 0 10.620095-1.2000382.727467-.4757322 1.978065-2.1966284 2.319137-3.1695083.136737-.4306065.29575-3.6001147.364118-7.7891584l.135968-7.0640874.887248-.9055738c.477809-.4749673 1.136908-.9506995 1.47798-1.0638962.318026-.0902515 3.615825-.2294529 7.297715-.2944645l6.70852-.1353772V8.11855062l-7.959118-.02218044c-4.36557-.02294528-8.322468.02218044-8.757258.11319673l.003841-.00611874Zm22.285685.13537716c-.182059.22945282-.250427 1.6306447-.182059 5.25293987.068368 5.4793333.090645 5.524459 1.750683 6.6541317l.773558.5438032 12.415333.1131967c11.939062.1131968 12.439147.1353772 13.098246.5659837 1.592439 1.0638962 2.160892 2.0826667 2.160892 3.8486886 0 1.6061697-.614544 2.6494152-2.183169 3.6712451-.591499.3824213-1.52407.4076611-14.07614.4749673-7.367619.0229453-13.553008.0910163-13.712022.1590873-.205104.0673062-.272704.4527869-.230454 1.177093l.068368 1.0868415 15.007943.068071c16.714071.0673061 15.736178.1353771 17.805656-1.4945027 3.387676-2.6945409 3.387676-7.8342841 0-10.5058797-2.047201-1.6061698-1.387334-1.5396285-14.576225-1.5396285-8.982335-.0221804-11.961339-.0902514-12.21407-.2936996-.998635-.7701966-1.136908-1.2910545-1.136908-4.2341693 0-1.9243443.090646-2.9431148.272705-3.1243826.205104-.204213 3.774839-.2715191 14.644593-.2715191 12.89391 0 14.371889-.0458906 14.507857-.3625355.230454-.58892889.159782-1.56257368-.135968-1.85627329C176.616123 8.068071 172.519416 8 159.789129 8c-14.37189 0-16.78244.04589056-17.032099.33959017l.005378-.00076484ZM19.1020954 0c2.2205878.40977167 4.4045599.99462074 6.5778525 1.60512771 1.2426443.35694659 2.4822372.72596749 3.7142019 1.11989164 1.9345279.60975232 3.8606647 1.2994969 5.612877 2.32883127.7849484.47165248 1.538621 1.00443111 2.1832093 1.65417957.6979734.67836645 1.2696776 1.47307903 1.6888978 2.34769736.7628264 1.57871515 1.0260015 3.34231815 1.103047 5.07648995.0366157 1.1319659.0343272 2.272233-.180027 3.389106-.1769758.9704722-.4927859 1.9273607-1.0176105 2.770298-.4587723.7547535-1.1104947 1.37658-1.8895211 1.8028444-.7561774.3967881-1.6028813.5943036-2.4585896.5735295-1.2907024.0135835-2.5417378-.3931695-3.6997083-.9267028-.0213591-3.8086881-.0038141-7.6181308-.0091539-11.4260643-.0076283-.68898991.0396669-1.38552629-.1014559-2.06470585-.0991675-.52825078-.3158102-1.05650155-.7338391-1.41495743-.285794-.23814794-.6299121-.39769052-.997777-.46259675-.3721593-.06345906-.7493019.08171493-.980232.37732198-.3760734.46410603-.474478 1.08065015-.4912602 1.66021672a51110.2975037 51110.2975037 0 0 0 0 30.58949303c-2.7726198-.8693498-5.5442226-1.7399574-8.3148083-2.6118228-.0030513-12.124613-.0030513-24.2522445 0-36.3828947L19.1020954 0ZM6.63674848 25.8027864c3.61503452-1.2662926 7.22625492-2.5446595 10.84205232-3.8064242.0061026 1.4036378 0 2.8080302 0 4.2139319.0061095.1905265.0015255.3812416-.0137309.5712655-2.8583107 1.0021672-5.7112816 2.0216912-8.566541 3.0306502-.39590693.1509287-.80249342.3154411-1.107624.6142801-.14188572.1403638-.25783534.3478909-.18002704.5486262.09764178.2369582.34174624.3660023.56678004.4633514.62628052.2520511 1.31129867.2875193 1.9787718.3177051.7457603-.0013177 1.4894783-.0771673 2.219825-.2263932.4900616-.1055962.9704894-.2509802 1.4364022-.4346749 1.2205223-.4369389 2.4410446-.8768963 3.6615669-1.3093073.0083911 1.1878096 0 2.3763739.0038141 3.5656927-.0038141.2369582.0106796.4761804-.012968.7123839-1.4996054.2784258-3.0195544.4361596-4.54492.4716525-3.07688755.0616923-6.14194818-.3951001-9.06390381-1.3508127-.95658436-.2739357-1.90706612-.6399381-2.70650823-1.2406347-.44015086-.3365712-.8337693-.7599264-1.03439266-1.2828947-.17078543-.4472003-.15124718-.9437567.05416068-1.3764706.20138618-.4248645.55304917-.7606811.940565-1.0217879.89632108-.6127709 1.88570698-1.0798955 2.8872981-1.496459.86428236-.3637384 1.75984061-.6474845 2.64166798-.9651896l-.00228848.0015093Z"/>
    <path d="M35.6984384 24.1527648c.8161229-.0989409 1.6383248-.1218952 2.4597669-.1527648 2.7006523.0110814 5.4187821.3609365 8.0024113 1.2031217.5068472.1583055.9984966.3688518 1.5030642.535864.9004707.3427314 1.8017013.7582833 2.5228378 1.4326647.432378.4115942.8062443.9656634.8115635 1.5980939.0250764.5160758-.1983315 1.0099889-.5190055 1.3899221-.6079127.7123747-1.4179564 1.2031217-2.2272402 1.6305465-.8624762.4575028-1.7895432.7535341-2.6938133 1.1018062C40.0361491 34.9563226 34.516808 37.0214176 29 39.0873042v-4.8283173c.0083588-.0649052-.0250764-.1765106.0615512-.1939242 4.1996638-1.5561429 8.398821-3.1154519 12.5974716-4.6779271.5676385-.2208361 1.1793507-.3807246 1.6611215-.7820291.1975716-.1583054.3905839-.4179264.2933179-.694961-.1003056-.2414159-.3419509-.375184-.5630792-.4749165-.6284298-.259621-1.3130915-.3094872-1.9817955-.3292754-1.0471297.0079153-2.1026181.1416834-3.0980752.4915385-2.9916906 1.0923079-5.977302 2.1972802-8.9667128 3.2856304v-5.1860877c2.1641693-.7915274 4.4240849-1.271193 6.7007181-1.5434785l-.0060792-.0007915ZM47.968397 36.064461c.6844666-.0801976 1.3569897.2317967 1.7576352.8153951.4006454.5835985.4666443 1.3473693.1724878 1.9961103-.3039564.6743814-1.0007764 1.1469232-1.7226727 1.1231774-.6751151.0015393-1.2992288-.3739584-1.6352853-.9838686-.3179411-.5766263-.3365824-1.2810378-.0496201-1.8750327.2869624-.5939948.8411557-.998144 1.4751755-1.0757815h.0022796Zm-.1420996.3633111c-.626588.1517988-1.1017066.6850482-1.2003544 1.3472178-.0986479.6621696.1989791 1.3203253.7519341 1.662785.552955.3424597 1.2502292.3004727 1.7616153-.1060772.5113861-.4065499.7342205-1.0960456.5629757-1.7419634-.1185708-.4346566-.4004957-.8010923-.7819277-1.0163212-.336222-.1835167-.7245228-.2351986-1.094243-.145641Z"/>
    <path d="M48.0004737 37h1.1477025c.2165798 0 .4544766.0453564.6079583.1857451.1534818.1403888.1705353.3599712.1236381.5442765-.0238749.1216703-.150071.1936645-.2421601.2786177.0792989.0597552.1816201.1159107.2012316.2159827.0434865.1864651 0 .3815695.0682142.5644349.0509411.0612358.082895.132274.0929417.2066234-.1585978.0035998-.316343 0-.4749408.0035998-.1065845-.2123831-.026433-.4514039-.0937944-.6695465-.0309572-.0889222-.1299552-.1484149-.2396021-.1439885-.2558029-.0093592-.5184273 0-.7750829 0-.0042634.2714183.0085268.5435566-.0085267.8142549h-.4050214c-.0068214-.6659467 0-1.3311735 0-1.9956803L48.0004737 37Zm.4152534.3160547v.5514759h.6940787c.1203869.009337.2392785-.028009.3231644-.1015119.0763856-.1074929.0786637-.2413098.0059687-.3506119-.0596874-.0835134-.1858835-.0921527-.2890573-.0979122-.2447182-.0064795-.490289 0-.7341545 0v-.0014399Z"/>
  </g>
</svg>
