<svg width="84" height="26" viewBox="0 0 84 26" fill="none" xmlns="http://www.w3.org/2000/svg">
<g clip-path="url(#clip0_679_1959)">
<path d="M12.915 0.287598C6.38696 0.287598 1.03907 5.43685 0.530884 11.9807L7.19151 14.7979C7.75589 14.4031 8.43768 14.1717 9.17116 14.1717C9.2369 14.1717 9.30235 14.1746 9.36725 14.1778L12.3293 9.78575C12.3293 9.76477 12.3293 9.74436 12.3293 9.72367C12.3293 7.08008 14.4314 4.92934 17.0159 4.92934C19.6001 4.92934 21.7022 7.08008 21.7022 9.72367C21.7022 12.3673 19.6001 14.5183 17.0159 14.5183C16.9802 14.5183 16.9448 14.5183 16.9094 14.5154L12.6849 17.599C12.6877 17.655 12.6891 17.7122 12.6891 17.7691C12.6891 19.7538 11.1112 21.3677 9.17144 21.3677C7.46878 21.3677 6.04508 20.1245 5.72258 18.4781L0.959007 16.4647C2.43384 21.8008 7.22607 25.7128 12.915 25.7128C19.7785 25.7128 25.3421 20.021 25.3421 13.0006C25.3421 5.97913 19.7782 0.287598 12.915 0.287598Z" fill="white"/>
<path d="M8.31827 19.5766L6.79175 18.9314C7.06227 19.5076 7.53029 19.9901 8.15168 20.2551C9.49505 20.8275 11.0438 20.1755 11.6036 18.8001C11.8747 18.1351 11.8764 17.4008 11.6076 16.7341C11.3393 16.0671 10.8331 15.5469 10.1822 15.2693C9.53634 14.9943 8.84444 15.0044 8.23652 15.2392L9.81333 15.9062C10.8041 16.3286 11.2727 17.4925 10.8598 18.5061C10.4477 19.5199 9.30908 19.9993 8.31827 19.5766Z" fill="white"/>
<path d="M20.1381 9.72331C20.1381 7.96197 18.7375 6.52881 17.0154 6.52881C15.2937 6.52881 13.8927 7.96197 13.8927 9.72331C13.8927 11.4849 15.2937 12.9175 17.0154 12.9175C18.7375 12.9175 20.1381 11.4847 20.1381 9.72331ZM14.6748 9.71785C14.6748 8.39246 15.7251 7.31824 17.0208 7.31824C18.3164 7.31824 19.3667 8.39246 19.3667 9.71785C19.3667 11.0432 18.3164 12.1175 17.0208 12.1175C15.7251 12.1175 14.6748 11.043 14.6748 9.71785Z" fill="white"/>
<path d="M38.6136 8.98537L37.781 10.4826C37.1396 10.0242 36.2704 9.74836 35.5117 9.74836C34.6445 9.74836 34.1079 10.1156 34.1079 10.7734C34.1079 11.5726 35.0611 11.7586 36.4778 12.2787C38.0006 12.8296 38.876 13.4771 38.876 14.9039C38.876 16.8561 37.3753 17.9524 35.2184 17.9524C34.1672 17.9524 32.8991 17.6748 31.9243 17.0682L32.5317 15.4083C33.3236 15.8362 34.2708 16.0899 35.1153 16.0899C36.2536 16.0899 36.7946 15.6603 36.7946 15.0252C36.7946 14.2984 35.9696 14.08 34.6377 13.6288C33.1199 13.1104 32.0681 12.4302 32.0681 10.851C32.0681 9.07014 33.4624 8.04736 35.4684 8.04736C36.8666 8.04736 37.9902 8.50056 38.6136 8.98537Z" fill="white"/>
<path d="M43.1621 17.7883V9.93167H40.3164V8.21143H47.96V9.93167H45.1227V17.7883H43.1621Z" fill="white"/>
<path d="M55.8448 12.0844V13.8047H52.0928V16.0523H56.4459V17.7883H50.1328V8.21143H56.4459V9.9265H52.0928V12.0844H55.8448Z" fill="white"/>
<path d="M60.8217 15.9292L60.2019 17.7888H58.1467L61.6568 8.21191H63.6303L67.2396 17.7885H65.115L64.4818 15.9289H60.8217V15.9292ZM62.6325 10.4963L61.354 14.3308H63.9373L62.6325 10.4963Z" fill="white"/>
<path d="M73.6334 17.5093L71.113 11.9632V17.7883H69.2356V8.21143H71.1088L74.2551 15.1246L77.2896 8.21143H79.1791V17.7883H77.302V11.9132L74.74 17.5093H73.6334Z" fill="white"/>
<path d="M82.9689 9.41969C82.9689 10.2427 82.3661 10.7557 81.6742 10.7557C80.9797 10.7557 80.3755 10.2427 80.3755 9.41969C80.3755 8.59692 80.9797 8.0874 81.6742 8.0874C82.3664 8.0874 82.9689 8.59692 82.9689 9.41969ZM80.5932 9.41969C80.5932 10.1082 81.0781 10.5408 81.6742 10.5408C82.268 10.5408 82.7509 10.1082 82.7509 9.41969C82.7509 8.72912 82.268 8.30322 81.6742 8.30322C81.0798 8.30322 80.5932 8.73429 80.5932 9.41969ZM81.6922 8.73889C82.0279 8.73889 82.1408 8.92051 82.1408 9.11679C82.1408 9.29669 82.0366 9.41739 81.9096 9.47889L82.2105 10.0557H81.9641L81.7104 9.54441H81.4489V10.0557H81.2438V8.73889H81.6922ZM81.4509 9.35158H81.6795C81.8276 9.35158 81.9149 9.25646 81.9149 9.13691C81.9149 9.01621 81.8523 8.93862 81.679 8.93862H81.4506V9.35158H81.4509Z" fill="white"/>
</g>
<defs>
<clipPath id="clip0_679_1959">
<rect width="83" height="26" fill="white" transform="translate(0.25)"/>
</clipPath>
</defs>
</svg>
