<svg width="80" height="19" viewBox="0 0 80 19" fill="none" xmlns="http://www.w3.org/2000/svg">
<path d="M3.39074 5.83102C3.39074 6.74552 4.12234 7.47711 5.03684 7.47711C5.95134 7.47711 6.68294 6.74552 6.68294 5.83102C6.68294 4.91652 5.95134 4.18492 5.03684 4.18492C4.12234 4.18492 3.39074 4.91652 3.39074 5.83102ZM13.6697 0.581787H10.9628C10.9079 0.581787 10.8531 0.636657 10.8531 0.691527V17.939C10.8531 18.0122 10.9079 18.067 10.9811 18.067H13.6697C16.1389 18.067 18.1508 16.0551 18.1508 13.586V5.06284C18.1508 2.59369 16.1572 0.581787 13.6697 0.581787ZM14.3099 11.9765C13.3405 11.9765 12.5357 11.19 12.5357 10.2023C12.5357 9.23295 13.3222 8.4282 14.3099 8.4282C15.2792 8.4282 16.084 9.21466 16.084 10.2023C16.084 11.1717 15.2975 11.9765 14.3099 11.9765ZM8.96919 0.581787H5.14658C2.67743 0.581787 0.665527 2.59369 0.665527 5.06284V13.586C0.665527 16.0551 2.67743 18.067 5.14658 18.067H8.96919C9.04235 18.067 9.09721 18.0122 9.09721 17.939V0.709817C9.09721 0.636657 9.04235 0.581787 8.96919 0.581787ZM7.68889 16.6587H5.14658C4.32353 16.6587 3.55535 16.3478 2.97007 15.7625C2.38479 15.1772 2.07386 14.409 2.07386 13.586V5.06284C2.07386 4.23979 2.38479 3.47161 2.97007 2.88633C3.55535 2.30105 4.32353 1.99012 5.14658 1.99012H7.68889V16.6587ZM36.5139 2.5754L38.9465 5.84931H39.9159V0.965877H38.9282V4.18492L36.5139 0.965877H35.5263V5.8676H36.5139V2.5754ZM26.4544 12.013C25.1193 11.7936 24.2596 11.5375 24.2596 10.9156C24.2596 10.2023 25.229 9.90968 26.5093 9.90968C27.7164 9.90968 28.9053 10.3669 29.3442 10.5498L30.0027 8.94031C29.5454 8.75741 28.0639 8.22701 26.4178 8.22701C24.4242 8.22701 22.2843 9.19637 22.2843 11.0071C22.2843 12.4703 23.3268 13.2202 25.9789 13.6774C27.8445 14.0066 28.887 14.1713 28.8504 14.976C28.8321 15.415 28.4846 16.1649 26.3813 16.1649C24.6803 16.1649 23.4914 15.543 23.0708 15.3052L22.1929 16.8965C22.6684 17.1342 24.223 17.8841 26.2532 17.8841C29.1979 17.8841 30.7526 16.8599 30.7526 14.9394C30.7526 13.8237 30.3868 12.6532 26.4544 12.013ZM23.6195 2.5754L26.052 5.84931H27.0214V0.965877H26.0338V4.18492L23.6195 0.965877H22.6318V5.8676H23.6195V2.5754ZM41.1596 15.104L39.2025 8.37332H37.5564L35.6177 15.0675L33.8253 8.37332H31.8134L34.4289 17.6281H36.6602L38.3795 11.5192L40.0988 17.6281H42.3301L44.9639 8.37332H42.952L41.1596 15.104ZM31.8134 0.965877H30.716V5.8676H31.8134V0.965877ZM47.2684 17.6464H49.3352V8.37332H47.2684V17.6464ZM77.959 0.782977C76.5141 0.782977 75.3436 1.95354 75.3436 3.39845C75.3436 4.84336 76.5141 6.01392 77.959 6.01392C79.404 6.01392 80.5745 4.84336 80.5745 3.39845C80.5562 1.97183 79.3857 0.782977 77.959 0.782977ZM77.959 4.93481C77.1177 4.93481 76.441 4.25808 76.441 3.39845C76.441 2.55711 77.1177 1.86209 77.959 1.86209C78.8004 1.86209 79.4771 2.53882 79.4771 3.39845C79.4771 4.25808 78.8004 4.93481 77.959 4.93481ZM78.2883 12.0313H73.9535V8.37332H72.0331V17.6281H73.9535V13.9518H78.2883V17.6464H80.2087V8.37332H78.2883V12.0313ZM83.318 16.3661L83.0071 17.2988L82.6962 16.3661H82.3486V17.6281H82.5681V16.6587L82.8973 17.6281V17.6464H83.1168V17.6281L83.446 16.6587V17.6281H83.6655V16.3661H83.318ZM69.6371 0.965877H67.6069V5.8676H69.6371C71.0271 5.8676 72.1611 4.7702 72.1611 3.41674C72.1611 2.06328 71.0271 0.965877 69.6371 0.965877ZM69.692 4.84336H68.6129V1.99012H69.692C70.4784 1.99012 71.1186 2.63027 71.1186 3.41674C71.1186 4.20321 70.4784 4.84336 69.692 4.84336ZM81.0135 16.6038H81.3976V17.6281H81.6353V16.6038H82.0194V16.3661H80.9952V16.6038H81.0135ZM65.8694 10.1292C66.9119 10.1292 67.8813 10.6962 68.4117 11.5741L69.9115 10.2572C68.997 8.88545 67.4606 8.0624 65.8145 8.0624C63.0893 8.0624 60.8762 10.2755 60.8762 13.0007C60.8762 15.7259 63.0893 17.939 65.8145 17.939C67.4789 17.939 68.997 17.1159 69.9115 15.7442L68.4117 14.4273C67.8813 15.3052 66.9119 15.8722 65.8694 15.8722C64.2416 15.8722 62.9247 14.5736 62.9247 12.9824C62.943 11.4278 64.2598 10.1292 65.8694 10.1292ZM54.9868 4.9531H52.1702V3.80083H54.7856V2.90462H52.1702V1.8438H54.9868V0.947587H51.1642V5.84931H54.9868V4.9531ZM51.5849 10.3486H54.5479V17.6464H56.5415V10.3486H59.4313V8.37332H51.5849V10.3486ZM47.5794 0.965877H43.4275V2.00841H45.0005V5.8676H46.0613V1.99012H47.5977V0.965877H47.5794ZM63.4551 5.8676V0.965877H62.4674V4.18492L60.0531 0.965877H59.0655V5.8676H60.0531V2.5754L62.4857 5.84931H63.4551V5.8676Z" fill="white"/>
</svg>
