<svg width="83" height="15" viewBox="0 0 83 15" fill="none" xmlns="http://www.w3.org/2000/svg">
<path d="M6.27761 0.411254C5.72773 0.479345 5.1868 0.606337 4.66421 0.790032C4.29266 0.906473 3.93965 1.07512 3.61582 1.2909C3.61582 1.32533 3.7194 1.35663 3.88576 1.37229C4.84637 1.59661 5.76146 1.98304 6.5915 2.51488C6.75079 2.6209 6.92132 2.70909 7.1 2.77783C7.27954 2.71101 7.45028 2.62271 7.6085 2.51488C8.23368 2.13892 8.89127 1.81939 9.57345 1.56011C9.79816 1.4879 10.0279 1.43244 10.2609 1.3942C10.4837 1.36289 10.5999 1.3222 10.5999 1.28776C10.5999 1.16568 9.58287 0.739945 8.90801 0.567774C8.04934 0.348167 7.15637 0.295032 6.27761 0.411254ZM2.14367 2.41158C1.03346 3.49956 0.335734 4.9377 0.169303 6.48109C0.0692055 7.23201 0.100001 7.99452 0.260331 8.73498C0.42657 9.55897 0.745957 10.3447 1.202 11.0515C1.48136 11.4741 1.51589 11.4678 1.56298 11.017C1.69481 9.32349 3.00687 7.00387 5.18213 4.61538C5.31034 4.47894 5.4259 4.33121 5.52741 4.17399C5.19124 3.76727 4.82052 3.39022 4.41938 3.04705C3.92563 2.57945 3.34138 2.21728 2.7024 1.98271C2.59567 1.97019 2.4764 2.07349 2.14367 2.41158ZM11.2402 2.09854C10.5097 2.49729 9.84227 3.00151 9.25956 3.59487C9.07014 3.7615 8.89962 3.94835 8.75106 4.15208C8.89008 4.35907 9.04655 4.55386 9.21876 4.73433C11.0676 6.80352 12.2415 8.80385 12.6025 10.4223C12.6506 10.6342 12.6801 10.85 12.6904 11.0671C12.6904 11.3082 12.6904 11.3395 12.772 11.3395C13.0867 11.0111 13.3331 10.6238 13.4971 10.2C13.9775 9.20811 14.1937 8.10954 14.1249 7.01013C14.1136 5.6816 13.6904 4.3891 12.9132 3.31C12.5564 2.7956 12.1174 2.343 11.6137 1.97019C11.4833 1.9935 11.3573 2.03679 11.2402 2.09854ZM6.65114 5.88945C5.52877 6.88871 4.48661 7.9741 3.53421 9.13567C2.72751 10.1468 1.85803 11.5367 1.85803 11.7965C2.09935 12.1316 2.3892 12.4291 2.71809 12.6793C4.2562 13.8864 6.22449 14.4094 8.16095 14.1255C9.67985 13.8903 11.0846 13.18 12.1725 12.097C12.3514 11.9311 12.3765 11.8842 12.3765 11.7276C12.3765 10.9356 10.851 8.97915 8.27395 6.52492C7.92756 6.15125 7.546 5.81161 7.13453 5.51067C6.95368 5.60967 6.79038 5.73764 6.65114 5.88945ZM67.0109 4.53879L73.1522 13.0299H74.3076V2.47109H73.1522V11.1447L66.8842 2.46479H65.8555V13.0236H67.0109V4.53879ZM59.5165 2.11262C56.6075 2.11262 54.5861 4.35764 54.5861 7.57281C54.5861 10.788 56.6168 13.0299 59.5165 13.0299C62.4161 13.0299 64.4468 10.788 64.4468 7.57281C64.4468 4.35764 62.4161 2.11262 59.5165 2.11262ZM59.5165 11.926C57.3009 11.926 55.7509 10.135 55.7509 7.57281C55.7509 5.01063 57.2916 3.21959 59.5165 3.21959C61.7413 3.21959 63.2697 5.01063 63.2697 7.57281C63.2697 10.135 61.729 11.926 59.5165 11.926ZM83.0432 3.50022V2.46479H75.7163V13.0299H83.1118V12.0008H76.8917V8.09195H82.6473V7.05653H76.8917V3.50022H83.0432ZM44.7036 2.46479L47.7203 6.57064L50.734 2.46479H52.1152L48.4204 7.49564L52.4731 13.0299H51.0855L47.7203 8.44895L44.352 13.0299H42.9645L47.0172 7.49564L43.3224 2.46479H44.7036ZM32.8934 7.89674C32.6864 7.71785 32.4543 7.57054 32.2046 7.45954C32.98 7.03978 33.4616 6.22448 33.4569 5.3396C33.4569 4.66651 33.2127 2.46479 30.0413 2.46479H25.7804V7.03178H24.3622C24.1743 7.27711 23.758 7.859 23.5952 8.09175H25.7867V13.0299H30.0507C32.3611 13.0299 33.8075 11.8472 33.8075 9.94748C33.8235 9.16678 33.4903 8.42 32.8996 7.91247M26.9419 3.57194H30.0288C30.8647 3.57194 32.2641 3.77953 32.2641 5.24839C32.2641 6.35868 31.4532 7.0192 30.0288 7.0192H26.9419V3.57194ZM30.0288 11.929H26.9419V8.08546H30.0288C31.1997 8.08546 32.6053 8.39999 32.6053 9.92232C32.6053 11.6648 30.993 11.929 30.0288 11.929Z" fill="white"/>
<path d="M39.0905 2.11279C36.1877 2.11279 34.1601 4.35781 34.1601 7.57298C34.1601 10.7881 36.1908 13.03 39.0905 13.03C41.9902 13.03 44.0209 10.7881 44.0209 7.57298C44.0209 4.35781 41.9994 2.11279 39.0905 2.11279ZM39.0905 11.9262C36.8811 11.9262 35.328 10.1352 35.328 7.57298C35.328 5.01079 36.8687 3.21975 39.0905 3.21975C41.3122 3.21975 42.8437 5.0139 42.8437 7.57298C42.8437 10.132 41.303 11.9262 39.0874 11.9262M15.8562 2.46496L19.546 7.49581L15.4951 13.03H16.8831L20.2494 8.44912L23.6157 13.03H25.0037L20.9497 7.49581L24.6488 2.46496H23.264L20.2494 6.57081L17.2348 2.46496H15.8562Z" fill="white"/>
</svg>
