<svg viewBox="0 0 349 45" xmlns="http://www.w3.org/2000/svg" role="img">
  <title>Xbox Series X</title>
  <path d="M22.13 18.44c.0228944-.0064002.0471056-.0064002.07 0 6.61 5 18 17.48 14.49 21-8.3378049 7.3004148-20.7921951 7.3004148-29.13 0-3.45-3.51 7.88-16 14.49-21 .0252011-.0125032.0547989-.0125032.08 0ZM33.66 3.92c-7.0831744-4.30759495-15.9768256-4.30759495-23.06 0-.029207.03085042-.029207.07914958 0 .11h.11C15 3.15 21.46 6.85 22.08 7.22h.1c.61-.37 7.12-4.07 11.4-3.15.0378442.00591565.0752861-.01276984.0933114-.04656725.0180253-.03379741.012684-.07530064-.0133114-.10343275ZM6.64 7a.39.39 0 0 0-.1.08c-7.87227429 7.8328405-8.72746588 20.2844301-2 29.12.03869808.0283451.09130192.0283451.13 0 .02501462-.0324003.02501462-.0775997 0-.11C3 30.93 11.6 18.28 16.05 13c.0068629-.0194113.0068629-.0405887 0-.06.0125043-.0216581.0125043-.0483419 0-.07C9.31 6.13 7 6.85 6.64 7Zm21.56 5.85c-.0125043.0216581-.0125043.0483419 0 .07-.0068629.0194113-.0068629.0405887 0 .06 4.45 5.3 13.08 18 11.39 23.16-.029207.0308504-.029207.0791496 0 .11h.12c6.7322332-8.8232997 5.8764218-21.2710767-2-29.09-.0264354-.03430027-.0607334-.06173869-.1-.08-.36-.23-2.61-.95-9.41 5.77ZM77 36.45h-4.53l-7.79-10.73-7.79 10.73h-4.53l10.06-13.84-9.27-12.76h4.53l7 9.63 7-9.63h4.52l-9.26 12.76L77 36.45Zm23.5-7.56c.103487 2.0982385-.7408628 4.1320207-2.3 5.54-1.52 1.34-3.75 2-6.6 2H79.12V24.6H73.2l2.47-3.4h3.47V9.85h12c2.2259458-.14230252 4.427216.5333701 6.19 1.9 1.4272781 1.2620426 2.2158433 3.0959152 2.15 5 .0815855 2.4444147-1.2814913 4.7083756-3.48 5.78 1.3394157.4733228 2.5086025 1.3328143 3.36 2.47.762524 1.1413459 1.160098 2.4875169 1.14 3.86v.03ZM83.19 21.2h7.62c1.2399177.1010362 2.4740092-.2546097 3.47-1 .81937-.8029194 1.2436751-1.9258648 1.16-3.07.0495833-1.0562978-.3936912-2.0758292-1.2-2.76-.9816239-.728153-2.1905925-1.0826892-3.41-1h-7.62v7.83h-.02Zm13.21 7.6c.0872614-1.1908908-.3772604-2.3558818-1.26-3.16-1.0946668-.7820285-2.4281875-1.1569707-3.77-1.06h-8.19v8.34h8.19c1.3298476.08716 2.6485827-.2911367 3.73-1.07.8940397-.7518364 1.3767628-1.884379 1.3-3.05Zm31.43-5.65c.023937 1.9036953-.277047 3.7975247-.89 5.6-.57096 1.6498484-1.480398 3.1621725-2.67 4.44-1.152152 1.2543819-2.565335 2.2408793-4.14 2.89-3.403636 1.28-7.156364 1.28-10.56 0-1.568095-.6400376-2.97011-1.6282875-4.1-2.89-1.191609-1.2684469-2.107521-2.7699978-2.69-4.41-.614804-1.8126189-.919083-3.7160493-.9-5.63-.021627-1.910872.282734-3.8114418.9-5.62.575452-1.658168 1.491786-3.1774439 2.69-4.46 1.137433-1.2482972 2.537781-2.228541 4.1-2.87 3.408451-1.25324048 7.151549-1.25324048 10.56 0 1.575625.6380616 2.989725 1.6183679 4.14 2.87 1.184542 1.2892501 2.093129 2.8069647 2.67 4.46.610296 1.8100287.911176 3.7099695.89 5.62Zm-21.76 0c-.140116 2.6982567.717742 5.3537033 2.41 7.46 1.647911 1.773094 3.959365 2.7804385 6.38 2.7804385s4.732089-1.0073445 6.38-2.7804385c1.67794-2.111975 2.521382-4.7668597 2.37-7.46.147294-2.7048926-.695164-5.3709005-2.37-7.5-1.661387-1.7488312-3.967819-2.73901-6.38-2.73901s-4.718613.9901788-6.38 2.73901c-1.686678 2.1248009-2.543225 4.7904034-2.41 7.5Zm34.58-.54 9.27-12.76h-4.53l-7 9.63-7-9.63h-4.52l9.26 12.76-10.06 13.84h4.52l7.8-10.73 7.79 10.73h4.52l-10.05-13.84Zm43.89-9.11v7.7h13.22v3.4h-13.22v8.18h14.94v3.65h-19V9.85h19v3.65h-14.94Zm-9.35 10.62c-1.33-1.22-3.53-2.17-6.55-2.8l-2.31-.48c-1.614556-.2408558-3.159025-.8238672-4.53-1.71-.826413-.6566703-1.278505-1.6766811-1.21-2.73-.035785-1.0930676.497952-2.1264724 1.41-2.73 1.199498-.7350156 2.595729-1.0840733 4-1 1.699328-.1396814 3.397225.2856717 4.83 1.21 1.068887.9491904 1.680382 2.3104963 1.68 3.74h4c.060342-2.3575686-.933099-4.6193889-2.71-6.17-1.8-1.45-4.48-2.21-7.94-2.21-2.448893-.11756539-4.866873.58635891-6.87 2-1.658498 1.2312701-2.610644 3.1953056-2.55 5.26-.099007 1.9520103.669639 3.8480035 2.1 5.18 1.795085 1.4247299 3.933236 2.3524116 6.2 2.69l2.27.48c1.653382.2666713 3.243347.8362107 4.69 1.68.845781.6087306 1.333149 1.5984632 1.3 2.64.066536 1.2836917-.520403 2.5140049-1.56 3.27-1.347372.832201-2.919312 1.2269328-4.5 1.13-1.895242.1301989-3.778398-.3881981-5.34-1.47-1.24954-1.1281885-1.925232-2.7586628-1.84-4.44h-4.07c0 3.05 1 5.41 3 7 2 1.59 4.7 2.4 8.19 2.4 3.22 0 5.78-.71 7.61-2.13 1.816852-1.3804716 2.846829-3.5598437 2.76-5.84.059397-1.8757116-.691072-3.6863102-2.06-4.97Zm48.72 9-.25-4.12c-.000219-1.2496789-.34633-2.4749118-1-3.54-.65213-.8933331-1.591103-1.5357885-2.66-1.82 1.283121-.4034367 2.401858-1.2100497 3.19-2.3.818625-1.2104834 1.231805-2.649612 1.18-4.11.092422-2.090151-.822277-4.098026-2.46-5.4-1.940135-1.4184324-4.309894-2.12476903-6.71-2h-11.67v26.6h4.07V25.54h7.67c1.202606-.1085567 2.398518.2696686 3.32 1.05.80006 1.0241238 1.204729 2.3020261 1.14 3.6l.12 2.83c-.064657 1.1841119.205674 2.3624781.78 3.4h4.21v-.06c-.541992-.9851143-.859565-2.0778395-.93-3.2v-.04ZM207.6 13.35h7.34c1.373542-.0879075 2.736703.2889872 3.87 1.07.926992.7822478 1.424856 1.9600308 1.34 3.17.091848 1.2748719-.388224 2.524526-1.31 3.41-1.013178.8242727-2.295476 1.2445815-3.6 1.18h-7.64v-8.83Zm20.4 23.1h4.06V9.85H228v26.6Zm27.12-23v-3.6h-19v26.6h19V32.8h-14.93v-8.19h13.21v-3.39h-13.21v-7.71h14.93v-.06Zm21.65 10.62c-1.33-1.22-3.53-2.17-6.55-2.8l-2.31-.48c-1.614013-.2429399-3.158055-.8257902-4.53-1.71-.826413-.6566703-1.278505-1.6766811-1.21-2.73-.046816-1.0834347.466963-2.1147704 1.36-2.73 1.199498-.7350156 2.595729-1.0840733 4-1 2.21 0 3.85.41 4.83 1.21 1.077868.9772524 1.676608 2.3755305 1.64 3.83h4c.068865-2.3592363-.926105-4.6245364-2.71-6.17-1.76-1.48-4.4-2.25-7.87-2.25-2.448893-.11756539-4.866873.58635891-6.87 2-1.645696 1.2284285-2.59571 3.1768899-2.55 5.23-.095068 1.9533554.677111 3.8490365 2.11 5.18 1.79053 1.4259828 3.925828 2.3539232 6.19 2.69l2.28.48c1.65039.2660723 3.237182.8356898 4.68 1.68.85105.6169314 1.335607 1.619852 1.29 2.67.068819 1.281836-.514177 2.5117712-1.55 3.27-1.346854.8334258-2.91919 1.2282569-4.5 1.13-1.892293.1319232-3.772854-.3867308-5.33-1.47-1.25685-1.1237425-1.937077-2.756288-1.85-4.44h-4.07c0 3.05 1 5.41 3 7 2 1.59 4.71 2.4 8.2 2.4 2.702729.1539721 5.379906-.595356 7.61-2.13 1.813091-1.3826083 2.839173-3.5616341 2.75-5.84.059368-1.8716885-.682782-3.6797673-2.04-4.97v-.05ZM320 6.53h-2v33.25h2V6.53Zm-18.6 16.08 9.3-12.76h-4.53l-7 9.63-7-9.63h-4.52l9.27 12.76-10.07 13.84h4.52l7.8-10.73L307 36.45h4.52L301.4 22.61Zm44.64 1.51c-1.32-1.22-3.52-2.17-6.55-2.8l-2.31-.48c-1.611558-.2404298-3.152851-.8235297-4.52-1.71-.828763-.6556391-1.284399-1.6752187-1.22-2.73-.042672-1.0849331.474648-2.1157971 1.37-2.73 1.198226-.7380435 2.595428-1.087344 4-1 2.22 0 3.85.41 4.83 1.21 1.072597.9473695 1.687846 2.3089274 1.69 3.74h4c.060668-2.3597478-.937066-4.6229908-2.72-6.17-1.76-1.48-4.4-2.25-7.87-2.25-2.448893-.11756539-4.866873.58635891-6.87 2-1.652035 1.2356508-2.599556 3.1978395-2.54 5.26-.099007 1.9520103.669639 3.8480035 2.1 5.18 1.79337 1.4275873 3.932321 2.3556159 6.2 2.69l2.27.48c1.65039.2660723 3.237182.8356898 4.68 1.68.85105.6169314 1.335607 1.619852 1.29 2.67.066536 1.2836917-.520403 2.5140049-1.56 3.27-1.346333.8346575-2.919068 1.2295886-4.5 1.13-1.89213.1303059-3.772164-.3882025-5.33-1.47-1.252044-1.1271528-1.931272-2.757299-1.85-4.44h-4.06c-.145513 2.6733493.963773 5.2616821 3 7 2 1.59 4.71 2.4 8.2 2.4 3.22 0 5.78-.71 7.61-2.13 1.813091-1.3826083 2.839173-3.5616341 2.75-5.84.065729-1.8739495-.686023-3.6839932-2.06-4.96h-.03Z" fill="#FFF" fill-rule="nonzero"/>
</svg>
